<?xml version="1.0" encoding="utf-8"?>
<!-- Generator: Adobe Illustrator 16.0.0, SVG Export Plug-In . SVG Version: 6.00 Build 0)  -->
<!DOCTYPE svg PUBLIC "-//W3C//DTD SVG 1.1//EN" "http://www.w3.org/Graphics/SVG/1.1/DTD/svg11.dtd">
<svg version="1.1" id="Ebene_1" xmlns="http://www.w3.org/2000/svg" xmlns:xlink="http://www.w3.org/1999/xlink" x="0px" y="0px"
	 width="1920px" height="3500px" viewBox="0 0 1920 3500" enable-background="new 0 0 1920 3500" xml:space="preserve">
<path fill="#0d1117" d="M1076-32c0,0-412,288-364,576s308,500,144,840s-460,416-428,860S8,3064-88,3292S-88-28-88-28"/>
<path fill="#10141b" d="M624-92c0,0-156,404-84,660s80,884-172,1316s-752,764-772,1224S-432-84-432-84"/>
<path fill="#151a22" d="M163-116c0,0,0,312,132,496s256,228,204,444s-284,332-244,516s77,356-96,492s-256,168-300,364
	S-261-104-261-104"/>
</svg>
